<svg xmlns="http://www.w3.org/2000/svg" viewBox="0 0 256 256"><defs><linearGradient id="g" x1="0" y1="0" x2="1" y2="1"><stop stop-color="#00ff7a"/><stop offset="1" stop-color="#008a46"/></linearGradient><filter id="s"><feDropShadow dx="0" dy="0" stdDeviation="8" flood-color="#00ff7a" flood-opacity=".55"/></filter></defs><rect width="256" height="256" rx="56" fill="#020403"/><rect x="22" y="22" width="212" height="212" rx="42" fill="url(#g)" filter="url(#s)"/><path d="M55 163V91h27l13 42 13-42h27v72h-20v-45l-14 45H89l-14-45v45H55Zm98 0V91h33c21 0 34 11 34 29 0 11-5 20-14 25l18 18h-27l-14-15h-9v15h-21Zm21-33h12c8 0 13-4 13-10 0-7-5-10-13-10h-12v20Z" fill="#00190c"/><text x="128" y="213" font-size="22" font-family="Arial Black,Arial" text-anchor="middle" fill="#00190c">RW</text></svg>
